<?xml version="1.0" standalone="no"?><!DOCTYPE svg PUBLIC "-//W3C//DTD SVG 1.1//EN" "http://www.w3.org/Graphics/SVG/1.1/DTD/svg11.dtd"><svg t="1542614403973" class="icon" style="" viewBox="0 0 1024 1024" version="1.1" xmlns="http://www.w3.org/2000/svg" p-id="10126" xmlns:xlink="http://www.w3.org/1999/xlink" width="64" height="64"><defs><style type="text/css"></style></defs><path d="M519.964444 146.773333a284.444444 284.444444 0 0 1 274.204445 227.555556 173.511111 173.511111 0 0 1 170.666667 174.648889 170.666667 170.666667 0 0 1-157.582223 170.666666h-85.902222a32.426667 32.426667 0 0 1-32.426667-32.426666 32.426667 32.426667 0 0 1 32.426667-32.426667H796.444444a105.813333 105.813333 0 0 0 103.537778-105.813333A108.088889 108.088889 0 0 0 796.444444 439.182222h-48.924444a17.066667 17.066667 0 0 1-17.066667-15.928889v-38.115555a213.902222 213.902222 0 0 0-210.488889-172.942222A209.351111 209.351111 0 0 0 360.106667 284.444444a130.844444 130.844444 0 0 0-18.773334 26.737778c-6.257778 10.808889-9.671111 17.066667-9.671111 17.066667a25.6 25.6 0 0 1-23.324444 13.084444 365.795556 365.795556 0 0 0-51.768889 0 159.857778 159.857778 0 0 0-134.826667 155.306667 157.013333 157.013333 0 0 0 158.72 157.013333 37.546667 37.546667 0 0 1 35.84 32.995556 35.84 35.84 0 0 1-36.408889 32.995555A221.866667 221.866667 0 0 1 56.888889 496.64a227.555556 227.555556 0 0 1 223.573333-227.555556h8.533334a277.048889 277.048889 0 0 1 230.968888-122.311111zM512 460.231111l157.582222 159.288889-46.08 46.648889-79.075555-79.644445v281.031112a32.426667 32.426667 0 1 1-64.853334 0v-282.168889L398.222222 665.031111l-46.08-46.648889L512 459.662222z" fill="#00a8e8" p-id="10127"></path></svg>