<?xml version="1.0" standalone="no"?><!DOCTYPE svg PUBLIC "-//W3C//DTD SVG 1.1//EN" "http://www.w3.org/Graphics/SVG/1.1/DTD/svg11.dtd"><svg t="1542608418182" class="icon" style="" viewBox="0 0 1024 1024" version="1.1" xmlns="http://www.w3.org/2000/svg" p-id="4064" xmlns:xlink="http://www.w3.org/1999/xlink" width="64" height="64"><defs><style type="text/css"></style></defs><path d="M872 1024H152c-44 0-80-36-80-80V80C72 36 108 0 152 0h480l320 320v624c0 44-36 80-80 80z" fill="#00CEA5" p-id="4065"></path><path d="M952 320h-240c-44 0-80-36-80-80V0l320 320z" fill="#66E2C9" p-id="4066"></path><path d="M239.6 865.6c-15.6 0.8-30.8-5.2-41.6-16.4l13.2-13.2c7.2 8 17.6 12.8 28.8 12 24 0 37.2-15.2 37.2-42v-124.4h19.6v126.8c-0.4 35.2-24 57.2-57.2 57.2zM420.8 788.8H372.4V864h-19.6v-182.4h68c33.2 0 56.4 20.8 56.4 53.6s-23.2 53.6-56.4 53.6z m-1.6-89.6H372.4v72.4h46.8c22.8 0 38.8-12.4 38.8-36.4s-16-36-38.8-36zM626 844.4c-25.2 26.8-67.6 28-94.4 2.8l-0.8-0.8c-17.2-17.2-17.2-35.2-17.2-73.6s0-56.4 17.2-73.6c12.4-12.4 29.2-19.2 46.4-18.8 34.8 0 58.4 22.4 63.6 54.4h-19.6c-5.2-23.2-21.6-37.2-44.4-37.2-12 0-23.2 4.8-31.6 13.2-11.6 11.6-12.8 24-12.8 62.4s1.2 50.8 12.8 62.4c8.4 8.4 19.6 12.8 31.6 12.8 13.2 0.4 26-5.6 34.4-15.6 7.6-8.8 10.4-18.8 10.4-33.2v-14h-44.8v-17.2h64.4v28.8c0.4 21.2-3.6 35.2-15.2 47.2z" fill="#FFFFFF" p-id="4067"></path></svg>