<?xml version="1.0" standalone="no"?><!DOCTYPE svg PUBLIC "-//W3C//DTD SVG 1.1//EN" "http://www.w3.org/Graphics/SVG/1.1/DTD/svg11.dtd"><svg t="1542608354945" class="icon" style="" viewBox="0 0 1024 1024" version="1.1" xmlns="http://www.w3.org/2000/svg" p-id="1777" xmlns:xlink="http://www.w3.org/1999/xlink" width="64" height="64"><defs><style type="text/css"></style></defs><path d="M913.664 188.330667L750.336 25.002667 725.333333 0v128a85.333333 85.333333 0 0 0 85.333334 85.333333h128l-25.002667-25.002666z" fill="#FE9693" p-id="1778"></path><path d="M464.896 349.525333h-3.925333c-1.28 0-3.968 0-5.248 1.28-5.205333 22.186667-1.322667 45.653333 7.850666 66.517334a110.208 110.208 0 0 0 1.322667-67.797334zM291.541333 740.522667l3.925334-1.28c18.218667-6.528 32.554667-19.498667 42.965333-36.522667a102.741333 102.741333 0 0 0-46.890667 37.802667zM473.984 538.496l-1.322667 2.645333-1.28-1.322666a1059.413333 1059.413333 0 0 1-39.125333 88.618666l2.602667-1.237333v2.602667c29.013333-10.410667 58.581333-19.157333 88.661333-26.069334l-1.237333-1.28h3.925333a394.965333 394.965333 0 0 1-52.224-63.957333zM651.264 607.573333c-11.733333 0-22.186667 0-33.877333 2.602667 13.056 6.485333 26.026667 9.173333 39.082666 10.496 9.130667 1.237333 18.304 0 26.026667-2.688 0-3.84-5.162667-10.410667-31.232-10.410667z" fill="#FF5855" p-id="1779"></path><path d="M853.333333 213.333333h-42.666666a85.333333 85.333333 0 0 1-85.333334-85.333333V0H128a85.333333 85.333333 0 0 0-85.333333 85.333333v853.333334a85.333333 85.333333 0 0 0 85.333333 85.333333h725.333333a85.333333 85.333333 0 0 0 85.333334-85.333333V213.333333h-85.333334z m-196.864 446.421334a166.4 166.4 0 0 1-96.469333-39.082667c-53.418667 11.648-104.234667 28.586667-155.050667 49.493333-40.405333 71.68-78.208 108.16-110.805333 108.16-6.528 0-14.336-1.237333-19.584-5.205333a38.4 38.4 0 0 1-22.101333-35.242667c0-11.690667 2.602667-44.288 126.421333-97.706666a928.085333 928.085333 0 0 0 69.077333-161.621334c-15.616-31.274667-49.536-108.16-26.069333-147.285333 7.850667-14.336 23.466667-22.186667 40.405333-20.906667 13.312 0.170667 25.770667 6.4 33.877334 16.938667 16.938667 23.466667 15.616 72.96-6.442667 146.005333a392.618667 392.618667 0 0 0 80.810667 104.277334c27.349333-5.205333 54.741333-9.130667 82.133333-9.130667 61.269333 1.28 70.4 29.994667 69.077333 46.848-0.128 44.458667-43.178667 44.458667-65.28 44.458667z" fill="#FF5855" p-id="1780"></path></svg>