<?xml version="1.0" standalone="no"?><!DOCTYPE svg PUBLIC "-//W3C//DTD SVG 1.1//EN" "http://www.w3.org/Graphics/SVG/1.1/DTD/svg11.dtd"><svg t="1542608619719" class="icon" style="" viewBox="0 0 1024 1024" version="1.1" xmlns="http://www.w3.org/2000/svg" p-id="7319" xmlns:xlink="http://www.w3.org/1999/xlink" width="64" height="64"><defs><style type="text/css"></style></defs><path d="M953.662759 201.69697v775.043878A46.902303 46.902303 0 0 1 907.117304 1024H115.844577a46.902303 46.902303 0 0 1-46.545455-47.259152V47.259152A46.902303 46.902303 0 0 1 115.844577 0h651.636364z" fill="#FF7043" p-id="7320"></path><path d="M953.662759 201.69697H798.511244l155.151515 170.666666V201.69697z" fill="#E5653C" p-id="7321"></path><path d="M954.702274 201.69697H814.026395a46.545455 46.545455 0 0 1-46.545454-46.545455V0z" fill="#FFAB91" p-id="7322"></path><path d="M506.826395 563.851636a144.166788 144.166788 0 0 0 97.419637-30.301091 102.818909 102.818909 0 0 0 38.94303-84.06109q0-107.938909-128.99297-107.954425h-118.970182v341.333334h73.650425v-118.970182H506.826395z m-5.352727-165.903515q64.279273 0 64.279273 54.411637 0 55.730424-64.946425 55.745939h-31.930181v-110.157576h32.581818z" fill="#FFFFFF" p-id="7323"></path></svg>