<?xml version="1.0" standalone="no"?><!DOCTYPE svg PUBLIC "-//W3C//DTD SVG 1.1//EN" "http://www.w3.org/Graphics/SVG/1.1/DTD/svg11.dtd"><svg t="1542784987854" class="icon" style="" viewBox="0 0 1024 1024" version="1.1" xmlns="http://www.w3.org/2000/svg" p-id="19095" xmlns:xlink="http://www.w3.org/1999/xlink" width="64" height="64"><defs><style type="text/css"></style></defs><path d="M790.933 133.44c45.76-12.48 62.4-12.48 74.88 20.8h87.36v-16.64l-16.64-66.56c-4.16-16.64-20.8-29.12-37.44-33.28-20.8-12.48-41.6-12.48-62.4-8.32l-299.52 79.040c-20.8 4.16-33.28 24.96-33.28 41.6h212.16l74.88-16.64zM857.493 116.8v0zM1007.253 728.32c0-12.48-4.16-24.96-12.48-33.28-8.32-8.32-20.8-12.48-33.28-12.48h-220.48c-41.6-4.16-45.76-16.64-45.76-87.36v-37.44c0-45.76 8.32-49.92 54.080-54.080h208c24.96 0 45.76-20.8 45.76-45.76v-199.68c0-16.64-12.48-33.28-29.12-41.6-16.64-16.64-37.44-24.96-62.4-24.96h-802.88c-45.76 4.16-83.2 41.6-83.2 87.36v619.84c0 49.92 41.6 87.36 87.36 87.36h794.56c49.92 0 87.36-41.6 87.36-87.36v-45.76l12.48-124.8c0 4.16 0 0 0 0zM699.413 507.84v0zM121.173 287.36v0zM919.893 907.2h-736.32c-45.76 0-54.080-8.32-58.24-45.76l-4.16-515.84c0-45.76 8.32-54.080 58.24-58.24h661.44c62.4 0 74.88 4.16 74.88 54.080v79.040h-224.64c-45.76 0-83.2 41.6-83.2 87.36v183.040c0 45.76 41.6 83.2 87.36 83.2h220.48v58.24c0 70.72-8.32 74.88-91.52 74.88h95.68zM807.573 553.6c-24.96 0-45.76 20.8-45.76 45.76s20.8 45.76 45.76 45.76h45.76c24.96 0 45.76-20.8 45.76-45.76s-20.8-45.76-45.76-45.76h-45.76zM179.413 907.2v0z" fill="" p-id="19096"></path></svg>