<?xml version="1.0" standalone="no"?><!DOCTYPE svg PUBLIC "-//W3C//DTD SVG 1.1//EN" "http://www.w3.org/Graphics/SVG/1.1/DTD/svg11.dtd"><svg t="1542608593319" class="icon" style="" viewBox="0 0 1024 1024" version="1.1" xmlns="http://www.w3.org/2000/svg" p-id="6405" xmlns:xlink="http://www.w3.org/1999/xlink" width="64" height="64"><defs><style type="text/css"></style></defs><path d="M707.6 0.2H128.2c-35.3 0-64 28.6-64 64v895.6c0 35.3 28.6 64 64 64h767.7c35.3 0 64-28.6 64-64V252.4L707.6 0.2z" fill="#7C80EE" p-id="6406"></path><path d="M771.6 252.4h188.2L707.6 0.2v188.2c0 35.4 28.7 64 64 64z" fill="#AFAFFE" p-id="6407"></path><path d="M618.1 691.1H235.3c-0.3 0-0.5-0.2-0.5-0.5V393.1c0-0.3 0.2-0.5 0.5-0.5h382.8c0.3 0 0.5 0.2 0.5 0.5v297.5c0 0.3-0.2 0.5-0.5 0.5zM781.6 686l-110.8-73.9c-5.9-4-9.5-10.6-9.5-17.7V489.3c0-7.1 3.6-13.8 9.5-17.7l110.8-73.9c3.3-2.2 7.7 0.2 7.7 4.1v280.1c-0.1 4-4.5 6.3-7.7 4.1z" fill="#FFFFFF" p-id="6408"></path></svg>