<?xml version="1.0" standalone="no"?><!DOCTYPE svg PUBLIC "-//W3C//DTD SVG 1.1//EN" "http://www.w3.org/Graphics/SVG/1.1/DTD/svg11.dtd"><svg t="1542608372413" class="icon" style="" viewBox="0 0 1024 1024" version="1.1" xmlns="http://www.w3.org/2000/svg" p-id="2544" xmlns:xlink="http://www.w3.org/1999/xlink" width="64" height="64"><defs><style type="text/css"></style></defs><path d="M665.6 0l256 256v716.8c0 28-23.2 51.2-51.2 51.2H153.6c-28 0-51.2-23.2-51.2-51.2V51.2c0-28 23.2-51.2 51.2-51.2h512zM284 360.8l94.4 330.4h56l64-248h2.4l64 248h56l94.4-330.4h-61.6L592 612h-2.4l-64-251.2h-56L408 612h-2.4L344 360.8h-60z" fill="#4E97FF" p-id="2545"></path><path d="M665.6 0l256 256h-256V0z" fill="#A4D2FF" p-id="2546"></path></svg>