<?xml version="1.0" standalone="no"?><!DOCTYPE svg PUBLIC "-//W3C//DTD SVG 1.1//EN" "http://www.w3.org/Graphics/SVG/1.1/DTD/svg11.dtd"><svg t="1541055454256" class="icon" style="" viewBox="0 0 1024 1024" version="1.1" xmlns="http://www.w3.org/2000/svg" p-id="2044" xmlns:xlink="http://www.w3.org/1999/xlink" width="200" height="200"><defs><style type="text/css"></style></defs><path d="M511.035 64.015c-246.685 0-447.687 200.651-447.687 447.336 0 246.684 200.65 447.686 447.687 447.686 101.906 0 201.704-35.14 281.121-99.096 5.272-4.216 6.325-12.298 1.757-17.57-4.216-5.271-12.3-6.325-17.57-1.756-74.848 60.44-169.024 93.472-264.957 93.472C278.407 934.087 89 744.682 89 511.701 89 278.722 278.055 88.965 511.034 88.965S933.42 278.721 933.42 511.35c0 100.501-35.843 197.839-101.203 274.093-4.569 5.271-3.866 13.353 1.405 17.922 5.272 4.568 13.354 3.865 17.922-1.406 69.226-80.823 107.178-184.135 107.178-290.609-0.001-246.685-201.003-447.335-447.687-447.335z" p-id="2045" fill="#f56c6c"></path><path d="M704.306 319.836c-4.919-4.92-13.001-4.92-17.922 0L505.412 500.808 324.44 319.836c-4.919-4.92-13.001-4.92-17.922 0-4.919 4.919-4.919 13.001 0 17.922L487.49 518.73 306.519 699.701c-4.919 4.919-4.919 13.001 0 17.922 2.46 2.459 5.623 3.865 8.785 3.865 3.163 0 6.326-1.406 8.785-3.865l180.972-180.972 180.972 180.972c2.46 2.459 5.623 3.865 8.785 3.865 3.163 0 6.326-1.406 8.785-3.865 4.92-4.92 4.92-13.002 0-17.922L522.631 518.729l180.972-180.972c5.623-5.271 5.623-13.002 0.703-17.921z" p-id="2046" fill="#f56c6c"></path></svg>