<?xml version="1.0" standalone="no"?><!DOCTYPE svg PUBLIC "-//W3C//DTD SVG 1.1//EN" "http://www.w3.org/Graphics/SVG/1.1/DTD/svg11.dtd"><svg t="1540968821705" class="icon" style="" viewBox="0 0 1081 1024" version="1.1" xmlns="http://www.w3.org/2000/svg" p-id="1952" xmlns:xlink="http://www.w3.org/1999/xlink" width="67.5625" height="64"><defs><style type="text/css"></style></defs><path d="M0 540.416 0 483.555556 1080.888889 483.555556 1080.888889 540.416 0 540.416ZM995.555556 56.860444 654.222222 56.860444 654.222222-0.028444 995.555556-0.028444C1026.958222-0.028444 1052.444444 25.457778 1052.444444 56.860444L1052.444444 398.193778 995.555556 398.193778 995.555556 56.860444ZM85.333333 398.193778 28.444444 398.193778 28.444444 56.860444C28.444444 25.457778 53.902222-0.028444 85.333333-0.028444L426.666667-0.028444 426.666667 56.860444 85.333333 56.860444 85.333333 398.193778ZM85.333333 967.111111 426.666667 967.111111 426.666667 1023.971556 85.333333 1023.971556C53.902222 1023.971556 28.444444 998.513778 28.444444 967.111111L28.444444 625.749333 85.333333 625.749333 85.333333 967.111111ZM995.555556 625.749333 1052.444444 625.749333 1052.444444 967.111111C1052.444444 998.513778 1026.958222 1023.971556 995.555556 1023.971556L654.222222 1023.971556 654.222222 967.111111 995.555556 967.111111 995.555556 625.749333Z" p-id="1953" fill="#ffffff"></path></svg>