<?xml version="1.0" standalone="no"?><!DOCTYPE svg PUBLIC "-//W3C//DTD SVG 1.1//EN" "http://www.w3.org/Graphics/SVG/1.1/DTD/svg11.dtd"><svg t="1541142292746" class="icon" style="" viewBox="0 0 1024 1024" version="1.1" xmlns="http://www.w3.org/2000/svg" p-id="4375" xmlns:xlink="http://www.w3.org/1999/xlink" width="64" height="64"><defs><style type="text/css"></style></defs><path d="M940.574451 940.942329 94.289991 940.942329c-12.473079 0-22.63758-10.143011-22.63758-22.680559 0-12.495592 10.1645-22.594601 22.63758-22.594601l846.284459 0c12.517081 0 22.636556 10.099009 22.636556 22.594601C963.211007 930.799318 953.091532 940.942329 940.574451 940.942329L940.574451 940.942329z" p-id="4376" fill="#409eff"></path><path d="M336.682577 292.852838l-83.844593 0c-12.472056 0-22.617114-10.143011-22.617114-22.636556 0-12.515035 10.144034-22.636556 22.617114-22.636556l83.844593 0c12.515035 0 22.659069 10.122545 22.659069 22.636556C359.340623 282.709827 349.197612 292.852838 336.682577 292.852838L336.682577 292.852838z" p-id="4377" fill="#409eff"></path><path d="M518.455527 292.852838l-83.845617 0c-12.493545 0-22.615067-10.143011-22.615067-22.636556 0-12.515035 10.121522-22.636556 22.615067-22.636556l83.845617 0c12.492522 0 22.659069 10.122545 22.659069 22.636556C541.11255 282.709827 530.948049 292.852838 518.455527 292.852838L518.455527 292.852838z" p-id="4378" fill="#409eff"></path><path d="M718.314391 530.423605l0-83.85585c0-12.484336 10.16757-22.636556 22.638603-22.636556 12.514012 0 22.636556 10.153244 22.636556 22.636556l0 83.85585c0 12.494569-10.122545 22.638603-22.636556 22.638603C728.481961 553.062208 718.314391 542.918173 718.314391 530.423605L718.314391 530.423605z" p-id="4379" fill="#409eff"></path><path d="M718.314391 757.450225l0-83.847663c0-12.493545 10.16757-22.636556 22.638603-22.636556 12.514012 0 22.636556 10.143011 22.636556 22.636556l0 83.847663c0 12.493545-10.122545 22.636556-22.636556 22.636556C728.481961 780.087804 718.314391 769.94377 718.314391 757.450225L718.314391 757.450225z" p-id="4380" fill="#409eff"></path><path d="M336.682577 494.552629l-83.844593 0c-12.472056 0-22.617114-10.143011-22.617114-22.635533 0-12.517081 10.144034-22.636556 22.617114-22.636556l83.844593 0c12.515035 0 22.659069 10.119475 22.659069 22.636556C359.340623 484.409618 349.197612 494.552629 336.682577 494.552629L336.682577 494.552629z" p-id="4381" fill="#409eff"></path><path d="M518.455527 494.552629l-83.845617 0c-12.493545 0-22.615067-10.143011-22.615067-22.635533 0-12.517081 10.121522-22.636556 22.615067-22.636556l83.845617 0c12.492522 0 22.659069 10.119475 22.659069 22.636556C541.11255 484.409618 530.948049 494.552629 518.455527 494.552629L518.455527 494.552629z" p-id="4382" fill="#409eff"></path><path d="M336.682577 696.242188l-83.844593 0c-12.472056 0-22.617114-10.141988-22.617114-22.638603 0-12.493545 10.144034-22.63451 22.617114-22.63451l83.844593 0c12.515035 0 22.659069 10.140964 22.659069 22.63451C359.340623 686.1002 349.197612 696.242188 336.682577 696.242188L336.682577 696.242188z" p-id="4383" fill="#409eff"></path><path d="M518.455527 696.242188l-83.845617 0c-12.493545 0-22.615067-10.141988-22.615067-22.638603 0-12.493545 10.121522-22.63451 22.615067-22.63451l83.845617 0c12.492522 0 22.659069 10.140964 22.659069 22.63451C541.11255 686.1002 530.948049 696.242188 518.455527 696.242188L518.455527 696.242188z" p-id="4384" fill="#409eff"></path><path d="M124.784516 918.303726l0-768.881578c0-37.297464 30.343075-67.618027 67.629283-67.618027l384.919696 0c37.329187 0 67.650773 30.319539 67.650773 67.618027L644.984269 903.111722c0 12.537548-10.121522 22.63758-22.595624 22.63758-12.514012 0-22.679535-10.102079-22.679535-22.63758L599.709109 149.422148c0-12.319583-10.034541-22.342868-22.375613-22.342868L192.413799 127.07928c-12.343119 0-22.334681 10.023284-22.334681 22.342868l0 768.881578L124.784516 918.303726z" p-id="4385" fill="#409eff"></path><path d="M625.480053 292.852838l208.588689 0c37.288255 0 67.606771 30.321586 67.606771 67.608817l0 546.004465c0 12.494569-10.121522 22.63451-22.572088 22.63451-12.494569 0-22.658046-10.141988-22.658046-22.63451l-0.001023-546.004465c0-12.310374-10.05603-22.333658-22.376637-22.333658L625.480053 338.127997" p-id="4386" fill="#409eff"></path></svg>