<?xml version="1.0" standalone="no"?><!DOCTYPE svg PUBLIC "-//W3C//DTD SVG 1.1//EN" "http://www.w3.org/Graphics/SVG/1.1/DTD/svg11.dtd"><svg t="1541749275811" class="icon" style="" viewBox="0 0 1024 1024" version="1.1" xmlns="http://www.w3.org/2000/svg" p-id="9999" xmlns:xlink="http://www.w3.org/1999/xlink" width="64" height="64"><defs><style type="text/css"></style></defs><path d="M355.669333 574.805333l66.218667 66.218667c5.12 5.233778 8.021333 12.117333 8.021333 19.456v98.247111c0 15.132444 12.288 27.420444 27.363556 27.420445h109.624889a27.420444 27.420444 0 0 0 27.363555-27.420445V660.48c0-7.338667 2.901333-14.222222 8.021334-19.456l66.218666-66.218667a27.420444 27.420444 0 0 0 8.021334-19.342222V457.216a27.363556 27.363556 0 0 0-27.363556-27.420444H375.068444a27.477333 27.477333 0 0 0-27.420444 27.420444v98.247111c0 7.224889 2.901333 14.222222 8.021333 19.342222z m156.387556-336.896c15.132444 0 27.420444 12.344889 27.420444 27.420445v27.306666a27.420444 27.420444 0 0 1-54.784 0v-27.306666c0-15.132444 12.231111-27.420444 27.363556-27.420445zM298.439111 324.778667a27.363556 27.363556 0 0 1 38.798222 0l19.399111 19.342222a27.477333 27.477333 0 0 1-38.798222 38.798222l-19.399111-19.456a27.306667 27.306667 0 0 1 0-38.684444z m368.981333 19.342222l19.399112-19.342222a27.420444 27.420444 0 1 1 38.741333 38.798222l-19.399111 19.456a27.420444 27.420444 0 1 1-38.741334-38.912z m0 0" p-id="10000" fill="#ffffff"></path><path d="M512 967.111111c-250.936889 0-455.111111-204.117333-455.111111-455.111111s204.174222-455.111111 455.111111-455.111111c250.993778 0 455.111111 204.117333 455.111111 455.111111s-204.117333 455.111111-455.111111 455.111111zM512 104.334222C287.232 104.334222 104.391111 287.232 104.391111 512S287.232 919.665778 512 919.665778 919.665778 736.768 919.665778 512 736.768 104.334222 512 104.334222z" p-id="10001" fill="#ffffff"></path></svg>