<?xml version="1.0" standalone="no"?><!DOCTYPE svg PUBLIC "-//W3C//DTD SVG 1.1//EN" "http://www.w3.org/Graphics/SVG/1.1/DTD/svg11.dtd"><svg t="1541132558236" class="icon" style="" viewBox="0 0 1024 1024" version="1.1" xmlns="http://www.w3.org/2000/svg" p-id="2508" xmlns:xlink="http://www.w3.org/1999/xlink" width="64" height="64"><defs><style type="text/css"></style></defs><path d="M512.052757 1023.999906a68.565524 68.565524 0 0 1-34.334669-9.154654L211.82731 861.292455l-3.076718 2.736958A112.998626 112.998626 0 1 1 97.913219 672.159201l3.878931-1.32129V363.732317a69.037413 69.037413 0 0 1 34.41961-59.552437l269.722519-155.723488-1.245788-4.341382a112.035971 112.035971 0 0 1-4.398009-31.05032 113.017501 113.017501 0 1 1 221.344422 32.277232l-1.302415 4.341382 267.580141 154.496576a69.150666 69.150666 0 0 1 34.391297 59.552437v307.105594l3.87893 1.32129a112.97975 112.97975 0 1 1-110.837372 191.870212l-3.076719-2.736958-265.815275 153.552797a69.962316 69.962316 0 0 1-34.400734 9.154654zM244.340487 752.852281l0.821087 3.96387a112.479547 112.479547 0 0 1 0 44.451978l-0.821087 3.963871 267.768897 154.685331 267.759459-154.402198-0.81165-4.058248a111.535769 111.535769 0 0 1 0-44.3576l0.821088-4.058248L685.28334 698.396249l-156.903211 90.319623a32.890688 32.890688 0 0 1-16.214118 4.341382 32.465988 32.465988 0 0 1-16.148054-4.247004l-157.091967-90.697135z m645.544641-22.084422a48.340346 48.340346 0 1 0 0.235945 0h-0.235945z m-755.71193 0a48.340346 48.340346 0 1 0 0.226506 0h-0.226506z m237.124402-251.139516v162.613072l140.792908 81.353726 140.783471-81.353726V479.628343L512.090508 398.274618zM579.523498 204.705603a111.158257 111.158257 0 0 1-31.144698 15.949861l-3.963871 1.226912v120.426164l156.846585 90.508379a32.145103 32.145103 0 0 1 16.402874 28.124605v181.299891l94.632692 54.644788 3.076718-2.736958a113.527142 113.527142 0 0 1 38.279665-22.084422l3.888368-1.32129V361.37287L582.515276 202.534912z m-412.89375 156.667267v309.276285l3.888368 1.32129a111.847215 111.847215 0 0 1 38.270227 22.084422l3.076718 2.736958 94.64213-54.644787V460.847146a32.428237 32.428237 0 0 1 16.148054-27.935849l157.091967-90.697135V221.127353l-3.831742-1.415668a109.063068 109.063068 0 0 1-29.776218-15.761105l-3.010654-2.265069zM513.345734 64.74322a48.368659 48.368659 0 1 0 48.340346 48.32147 48.40641 48.40641 0 0 0-48.378097-48.32147z" p-id="2509" fill="#ffffff"></path></svg>