<?xml version="1.0" standalone="no"?><!DOCTYPE svg PUBLIC "-//W3C//DTD SVG 1.1//EN" "http://www.w3.org/Graphics/SVG/1.1/DTD/svg11.dtd"><svg t="1541142933120" class="icon" style="" viewBox="0 0 1024 1024" version="1.1" xmlns="http://www.w3.org/2000/svg" p-id="6794" xmlns:xlink="http://www.w3.org/1999/xlink" width="64" height="64"><defs><style type="text/css"></style></defs><path d="M820.8 280.9l-543.3-153-67.6 153H98.2v614h829.1v-614H820.8zM309.6 196l301.5 84.9h-339l37.5-84.9z m560.9 285.1H710.4c-69 0-125.1 54.5-125.1 121.4s56.1 121.4 125.1 121.4h160.1v114.3H155.1V337.8H813l0.9 0.3 0.1-0.3h56.5v143.3zM745.1 599.5c0 21.4-17.3 38.7-38.7 38.7s-38.7-17.3-38.7-38.7 17.3-38.7 38.7-38.7 38.7 17.4 38.7 38.7z" p-id="6795" fill="#409eff"></path></svg>