<?xml version="1.0" standalone="no"?><!DOCTYPE svg PUBLIC "-//W3C//DTD SVG 1.1//EN" "http://www.w3.org/Graphics/SVG/1.1/DTD/svg11.dtd"><svg t="1540888985437" class="icon" style="" viewBox="0 0 1024 1024" version="1.1" xmlns="http://www.w3.org/2000/svg" p-id="4803" xmlns:xlink="http://www.w3.org/1999/xlink" width="64" height="64"><defs><style type="text/css"></style></defs><path d="M648.4 522.4H377c-11.5 0-20.8 9.3-20.8 20.8S365.5 564 377 564h271.4c11.5 0 20.8-9.3 20.8-20.8s-9.3-20.8-20.8-20.8z" fill="#cdcdcd" p-id="4804"></path><path d="M762.4 399.7v-88.5c0-135.9-110.6-246.5-246.5-246.5h-6.4C373.5 64.6 263 175.2 263 311.1v88.5c-47.4 9.7-83.2 51.7-83.2 101.9v353.7c0 57.4 46.7 104 104 104h457.8c57.4 0 104-46.7 104-104V501.6c0-50.2-35.8-92.3-83.2-101.9zM509.5 106.2h6.4c113 0 204.9 91.9 204.9 204.9v86.4H304.6v-86.4c0-113 91.9-204.9 204.9-204.9zM804 855.3c0 34.4-28 62.4-62.4 62.4H283.8c-34.4 0-62.4-28-62.4-62.4V501.6c0-34.4 28-62.4 62.4-62.4h457.8c34.4 0 62.4 28 62.4 62.4v353.7z" fill="#cdcdcd" p-id="4805"></path></svg>