<?xml version="1.0" standalone="no"?><!DOCTYPE svg PUBLIC "-//W3C//DTD SVG 1.1//EN" "http://www.w3.org/Graphics/SVG/1.1/DTD/svg11.dtd"><svg t="1540888367640" class="icon" style="" viewBox="0 0 1024 1024" version="1.1" xmlns="http://www.w3.org/2000/svg" p-id="3606" xmlns:xlink="http://www.w3.org/1999/xlink" width="64" height="64"><defs><style type="text/css"></style></defs><path d="M736 0H288C235.2 0 192 43.2 192 96v832c0 52.8 43.2 96 96 96h448c52.8 0 96-43.2 96-96V96c0-52.8-43.2-96-96-96zM384 48h256v32h-256v-32zM512 960a64 64 0 1 1-0.032-127.968A64 64 0 0 1 512 960z m256-192H256V128h512v640z" fill="#cdcdcd" p-id="3607"></path></svg>