<?xml version="1.0" standalone="no"?><!DOCTYPE svg PUBLIC "-//W3C//DTD SVG 1.1//EN" "http://www.w3.org/Graphics/SVG/1.1/DTD/svg11.dtd"><svg t="1541748705582" class="icon" style="" viewBox="0 0 1024 1024" version="1.1" xmlns="http://www.w3.org/2000/svg" p-id="2639" xmlns:xlink="http://www.w3.org/1999/xlink" width="64" height="64"><defs><style type="text/css"></style></defs><path d="M892.126019 134.054135 133.450896 134.054135c-38.08541 0-68.970838 30.621415-68.970838 68.391646l0 615.513562c0 37.774325 30.885428 68.391646 68.970838 68.391646l758.675122 0c38.090527 0 68.970838-30.617321 68.970838-68.391646L961.096856 202.445782C961.096856 164.671457 930.211429 134.054135 892.126019 134.054135L892.126019 134.054135zM892.126019 817.959344 133.450896 817.959344 133.450896 202.450898l758.675122 0L892.126019 817.959344 892.126019 817.959344zM305.879014 441.811428c38.092573 0 68.969814-30.621415 68.969814-68.387553 0-37.790698-30.881334-68.394716-68.969814-68.394716-38.055734 0-68.971861 30.604018-68.971861 68.394716C236.907153 411.1982 267.818163 441.811428 305.879014 441.811428L305.879014 441.811428zM650.73218 407.619698l-204.384947 279.45469L340.359316 544.397874 167.935292 783.77273l689.705308 0L650.73218 407.624814 650.73218 407.619698zM650.73218 407.619698" p-id="2640" fill="#ffffff"></path></svg>