<?xml version="1.0" standalone="no"?><!DOCTYPE svg PUBLIC "-//W3C//DTD SVG 1.1//EN" "http://www.w3.org/Graphics/SVG/1.1/DTD/svg11.dtd"><svg t="1541132288779" class="icon" style="" viewBox="0 0 1024 1024" version="1.1" xmlns="http://www.w3.org/2000/svg" p-id="1656" xmlns:xlink="http://www.w3.org/1999/xlink" width="64" height="64"><defs><style type="text/css"></style></defs><path d="M113.37 110.6h678.11v297.6h46.11V64.49H67.26v897.02h287.4V915.4H113.37V110.6z" p-id="1657" fill="#ffffff"></path><path d="M200.59 270.18h492.72v46.11H200.59zM201.37 437.55h492.72v46.11H201.37zM202.15 604.91h250.27v46.11H202.15zM916.57 800H800.45v-40.39a131.39 131.39 0 1 0-134.52 0V800H549.81a43.42 43.42 0 0 0-43.42 43.42v36.38H960v-36.35A43.42 43.42 0 0 0 916.57 800zM506.39 908.74H960v51.62H506.39z" p-id="1658" fill="#ffffff"></path></svg>