<?xml version="1.0" standalone="no"?><!DOCTYPE svg PUBLIC "-//W3C//DTD SVG 1.1//EN" "http://www.w3.org/Graphics/SVG/1.1/DTD/svg11.dtd"><svg t="1541058509679" class="icon" style="" viewBox="0 0 1024 1024" version="1.1" xmlns="http://www.w3.org/2000/svg" p-id="6978" xmlns:xlink="http://www.w3.org/1999/xlink" width="200" height="200"><defs><style type="text/css"></style></defs><path d="M512 992C246.896 992 32 777.104 32 512 32 246.896 246.896 32 512 32 777.104 32 992 246.896 992 512 992 777.104 777.104 992 512 992ZM792.832 359.168C780.704 347.04 761.024 347.04 748.896 359.168L447.536 660.528 276.032 489.024C264.16 477.136 244.896 477.136 233.024 489.024 221.136 500.896 221.136 520.16 233.024 532.032L419.664 718.672C421.12 721.584 422.688 724.464 425.12 726.896 437.232 739.024 456.912 739.024 469.04 726.896L792.832 403.104C804.96 390.976 804.96 371.296 792.832 359.168Z" p-id="6979" fill="#67c23a"></path></svg>