<?xml version="1.0" standalone="no"?><!DOCTYPE svg PUBLIC "-//W3C//DTD SVG 1.1//EN" "http://www.w3.org/Graphics/SVG/1.1/DTD/svg11.dtd"><svg t="1541142854435" class="icon" style="" viewBox="0 0 1024 1024" version="1.1" xmlns="http://www.w3.org/2000/svg" p-id="6036" xmlns:xlink="http://www.w3.org/1999/xlink" width="64" height="64"><defs><style type="text/css"></style></defs><path d="M511.95904 0.7168c-178.19648 0-322.6624 145.69472-322.6624 325.4272 0 179.75296 144.46592 325.4272 322.6624 325.4272s322.6624-145.67424 322.6624-325.4272c0-179.73248-144.46592-325.4272-322.6624-325.4272z m0 591.93344c-145.92 0-264.21248-119.31648-264.21248-266.50624 0-147.16928 118.29248-266.48576 264.21248-266.48576S776.192 178.97472 776.192 326.144c0 147.18976-118.31296 266.50624-264.23296 266.50624z" fill="#409eff" p-id="6037"></path><path d="M961.3312 986.9312C931.30752 763.6992 741.62176 591.60576 512 591.60576c-229.5808 0-419.26656 172.09344-449.29024 395.3664A29.34784 29.34784 0 0 0 90.97216 1024c16.13824-0.02048 29.20448-13.2096 29.20448-29.4912h0.49152c26.3168-194.29376 191.488-344.00256 391.3728-344.00256 199.86432 0 365.03552 149.7088 391.3728 344.00256h0.45056c0 16.2816 13.1072 29.47072 29.22496 29.47072a29.34784 29.34784 0 0 0 28.24192-37.0688z" fill="#409eff" p-id="6038"></path></svg>